<svg xmlns="http://www.w3.org/2000/svg" width="265" height="91" viewBox="0 0 265 91"><g><g><path fill="#0f3057" d="M19.406 11.906h219.75v68.25H19.406z"/></g><g><path fill="#0f3057" d="M25.86 0C40.14 0 51.718 11.62 51.718 25.953c0 7.796-3.425 14.79-8.848 19.547a25.932 25.932 0 0 1 8.848 19.547C51.719 79.38 40.14 91 25.859 91 11.578 91 0 79.38 0 65.047 0 57.25 3.425 50.257 8.847 45.5A25.932 25.932 0 0 1 0 25.953C0 11.619 11.578 0 25.86 0z"/></g><g><path fill="#0f3057" d="M239.14 0C253.423 0 265 11.62 265 25.953c0 7.796-3.425 14.79-8.848 19.547A25.932 25.932 0 0 1 265 65.047C265 79.38 253.422 91 239.14 91c-14.281 0-25.859-11.62-25.859-25.953 0-7.797 3.425-14.79 8.848-19.547a25.932 25.932 0 0 1-8.848-19.547C213.281 11.619 224.86 0 239.141 0z"/></g></g></svg>